# 3ds Max Wavefront OBJ Exporter v0.97b - (c)2007 guruware
# File Created: 18.06.2019 19:08:44

mtllib box.mtl

#
# object Box001
#

v  -7.66284752 -14.45271683 0.00000000
v  29.73015404 -14.45271683 0.00000000
v  -7.66284752 49.06086731 0.00000000
v  29.73015404 49.06086731 0.00000000
v  -7.66284752 -14.45271683 -30.72743988
v  29.73015404 -14.45271683 -30.72743988
v  -7.66284752 49.06086731 -30.72743988
v  29.73015404 49.06086731 -30.72743988
v  -7.66284752 -14.45271683 -15.36371994
v  29.73015404 -14.45271683 -15.36371994
v  29.73015404 49.06086731 -15.36371994
v  -7.66284752 49.06086731 -15.36371994
# 12 vertices

vn 0.00000000 0.00000000 1.00000000
vn 0.00000000 0.00000000 1.00000000
vn 0.00000000 0.00000000 1.00000000
vn 0.00000000 0.00000000 1.00000000
vn 0.00000000 0.00000000 1.00000000
vn 0.00000000 0.00000000 1.00000000
vn 0.00000000 0.00000000 -1.00000000
vn 0.00000000 0.00000000 -1.00000000
vn 0.00000000 0.00000000 -1.00000000
vn 0.00000000 0.00000000 -1.00000000
vn 0.00000000 0.00000000 -1.00000000
vn 0.00000000 0.00000000 -1.00000000
vn 0.00000000 -1.00000000 0.00000000
vn 0.00000000 -1.00000000 0.00000000
vn 0.00000000 -1.00000000 0.00000000
vn 0.00000000 -1.00000000 0.00000000
vn 0.00000000 -1.00000000 0.00000000
vn 0.00000000 -1.00000000 0.00000000
vn 0.00000000 -1.00000000 0.00000000
vn 0.00000000 -1.00000000 0.00000000
vn 0.00000000 -1.00000000 0.00000000
vn 0.00000000 -1.00000000 0.00000000
vn 0.00000000 -1.00000000 0.00000000
vn 0.00000000 -1.00000000 0.00000000
vn 1.00000000 0.00000000 0.00000000
vn 1.00000000 0.00000000 0.00000000
vn 1.00000000 0.00000000 0.00000000
vn 1.00000000 0.00000000 0.00000000
vn 1.00000000 0.00000000 0.00000000
vn 1.00000000 0.00000000 0.00000000
vn 1.00000000 0.00000000 0.00000000
vn 1.00000000 0.00000000 0.00000000
vn 1.00000000 0.00000000 0.00000000
vn 1.00000000 0.00000000 0.00000000
vn 1.00000000 0.00000000 0.00000000
vn 1.00000000 0.00000000 0.00000000
vn 0.00000000 1.00000000 0.00000000
vn 0.00000000 1.00000000 0.00000000
vn 0.00000000 1.00000000 0.00000000
vn 0.00000000 1.00000000 0.00000000
vn 0.00000000 1.00000000 0.00000000
vn 0.00000000 1.00000000 0.00000000
vn 0.00000000 1.00000000 0.00000000
vn 0.00000000 1.00000000 0.00000000
vn 0.00000000 1.00000000 0.00000000
vn 0.00000000 1.00000000 0.00000000
vn 0.00000000 1.00000000 0.00000000
vn 0.00000000 1.00000000 0.00000000
vn -1.00000000 0.00000000 0.00000000
vn -1.00000000 0.00000000 0.00000000
vn -1.00000000 0.00000000 0.00000000
vn -1.00000000 0.00000000 0.00000000
vn -1.00000000 0.00000000 0.00000000
vn -1.00000000 0.00000000 0.00000000
vn -1.00000000 0.00000000 0.00000000
vn -1.00000000 0.00000000 0.00000000
vn -1.00000000 0.00000000 0.00000000
vn -1.00000000 0.00000000 0.00000000
vn -1.00000000 0.00000000 0.00000000
vn -1.00000000 0.00000000 0.00000000
# 60 vertex normals

vt 0.00000000 0.00000000 0.00000000
vt 1.00000000 0.00000000 0.00000000
vt 0.00000000 0.50000000 0.00000000
vt 1.00000000 0.50000000 0.00000000
vt 0.00000000 1.00000000 0.00000000
vt 1.00000000 1.00000000 0.00000000
vt 0.00000000 0.00000000 0.00000000
vt 1.00000000 0.00000000 0.00000000
vt 0.00000000 0.50000000 0.00000000
vt 1.00000000 0.50000000 0.00000000
vt 0.00000000 1.00000000 0.00000000
vt 1.00000000 1.00000000 0.00000000
vt 0.00000000 0.00000000 0.00000000
vt 1.00000000 0.00000000 0.00000000
vt 0.00000000 1.00000000 0.00000000
vt 1.00000000 1.00000000 0.00000000
# 16 texture coords

o Box001
g Box001
usemtl 03___Default
f 3/15/1 1/13/2 4/16/3 
f 2/14/4 4/16/5 1/13/6 
f 6/13/7 5/14/8 8/15/9 
f 7/16/10 8/15/11 5/14/12 
f 2/8/13 1/7/14 10/10/15 
f 9/9/16 10/10/17 1/7/18 
f 10/10/19 9/9/20 6/12/21 
f 5/11/22 6/12/23 9/9/24 
f 4/2/25 2/1/26 11/4/27 
f 10/3/28 11/4/29 2/1/30 
f 11/4/31 10/3/32 8/6/33 
f 6/5/34 8/6/35 10/3/36 
f 3/8/37 4/7/38 12/10/39 
f 11/9/40 12/10/41 4/7/42 
f 12/10/43 11/9/44 7/12/45 
f 8/11/46 7/12/47 11/9/48 
f 1/2/49 3/1/50 9/4/51 
f 12/3/52 9/4/53 3/1/54 
f 9/4/55 12/3/56 5/6/57 
f 7/5/58 5/6/59 12/3/60 
# 20 faces

